{"title":"Left of Center 2013 HDRiP XViD-FiRE","uid":9684782,"size":737317749,"categoryP":"video","categoryS":"movies","magnet":"?xt=urn:btih:939ec516e3cea1787e4ef3c4c51aaae0c676465d&amp;dn=Left+of+Center+2013+HDRiP+XViD-FiRE&amp;tr=udp%3A%2F%2Ftracker.openbittorrent.com%3A80&amp;tr=udp%3A%2F%2Fopen.demonii.com%3A1337&amp;tr=udp%3A%2F%2Ftracker.coppersurfer.tk%3A6969&amp;tr=udp%3A%2F%2Fexodus.desync.com%3A6969","seeders":1,"leechers":0,"uploader":"NewSky005","files":3,"time":1393742697,"description":"Format : AVI\nFormat/Info : Audio Video Interleave\nFile size : 699 MiB\nDuration : 1h 20mn\nOverall bit rate : 1 221 Kbps\nWriting application : VirtualDubMod 1.5.10.2 (build 2542/release)\nWriting library : VirtualDubMod build 2542/release\n\nVideo\n\n\nID : 0\nFormat : MPEG-4 Visual\nFormat profile : Advanced Simple@L5\nFormat settings, BVOP : 2\nFormat settings, QPel : No\nFormat settings, GMC : No warppoints\nFormat settings, Matrix : Default (MPEG)\nMuxing mode : Packed bitstream\nCodec ID : XVID\nCodec ID/Hint : XviD\nDuration : 1h 20mn\nBit rate : 1 084 Kbps\nWidth : 720 pixels\nHeight : 304 pixels\nDisplay aspect ratio : 2.35:1\nFrame rate : 23.976 fps\nColor space : YUV\nChroma subsampling : 4:2:0\nBit depth : 8 bits\nScan type : Progressive\nCompression mode : Lossy\nBits/(Pixel*Frame) : 0.207\nStream size : 621 MiB (89%)\nWriting library : XviD 65\n\nAudio\n\n\nID : 1\nFormat : MPEG Audio\nFormat version : Version 1\nFormat profile : Layer 3\nMode : Joint stereo\nMode extension : MS Stereo\nCodec ID : 55\nCodec ID/Hint : MP3\nDuration : 1h 20mn\nBit rate mode : Constant\nBit rate : 128 Kbps\nChannel(s) : 2 channels\nSampling rate : 48.0 KHz\nCompression mode : Lossy\nStream size : 73.3 MiB (10%)\nAlignment : Aligned on interleaves\nInterleave, duration : 42 ms (1.00 video frame)\nInterleave, preload duration : 504 ms\nWriting library : LAME3.97\nEncoding settings : -m j -V 4 -q 2 -lowpass 17 -b 128\nSource : Hero (Thx mate)\n\nIMDb Info\n\nLink: http://www.imdb.com/title/tt1890448/\n\nGenre: Thriller\n\nActors: Bryson Baker, Jason Wilkinson, Jami Harris\n\nPlot:\n\na psychological thriller set in a small town in the rolling plains of Northeastern Oklahoma, focuses on a series of homicides along Highway 177.\n\nThe murders cause a strained relationship between highway patrol officer Trooper Ferguson (J Bryson Baker) and local police chief Tom Parker (Jason Wilkinson) who are both personally invested in finding the killer. In efforts to solve the murders and put the town at ease.... See full summary\nScreens\n[img]http://img.acianetmedia.com/i/PLdNQ.png[/img]\n[img]http://img.acianetmedia.com/i/p5BeP.png[/img]\n[img]http://img.acianetmedia.com/i/LNEI8.png[/img]\n[img]http://img.acianetmedia.com/i/r5AXL.png[/img]","torrent":{"xt":"urn:btih:939ec516e3cea1787e4ef3c4c51aaae0c676465d","amp;dn":"Left+of+Center+2013+HDRiP+XViD-FiRE","amp;tr":["udp%3A%2F%2Ftracker.openbittorrent.com%3A80","udp%3A%2F%2Fopen.demonii.com%3A1337","udp%3A%2F%2Ftracker.coppersurfer.tk%3A6969","udp%3A%2F%2Fexodus.desync.com%3A6969"],"infoHash":"939ec516e3cea1787e4ef3c4c51aaae0c676465d","infoHashBuffer":{"type":"Buffer","data":[147,158,197,22,227,206,161,120,126,78,243,196,197,26,170,224,198,118,70,93]},"announce":[],"urlList":[]}}